<svg width="410" height="206" viewBox="0 0 410 206" fill="none" xmlns="http://www.w3.org/2000/svg">
<rect width="410" height="206" fill="white"/>
<rect x="3" y="3" width="404" height="200" rx="16" fill="#DA3731"/>
<path fill-rule="evenodd" clip-rule="evenodd" d="M330.507 36.9115L321.015 38.3225C319.208 38.5905 318.044 38.9095 317.574 39.3065C316.987 39.8005 316.664 40.8655 316.568 42.4885L316.283 48.6235C316.255 49.4645 316.285 50.0915 316.363 50.4995C316.511 51.2805 317.045 51.6915 317.962 51.7295C318.367 51.7725 319.183 51.7045 320.414 51.5205L329.84 50.1185L330.507 36.9115ZM337.457 55.0155L317.147 58.0375C314.183 58.4785 312.098 58.5275 310.885 58.1815C309.549 57.8215 308.739 56.8935 308.454 55.3975C308.3 54.5805 308.256 53.5215 308.324 52.2185L308.843 41.2335C308.991 38.2765 309.694 36.2495 310.947 35.1545C312.202 34.0575 314.677 33.2355 318.37 32.6865L330.815 30.8355L331.242 22.3805L339.032 21.2235L337.457 55.0155ZM295.861 51.6075L283.919 53.3835C283.193 53.4915 282.625 53.8025 282.228 54.3165C281.832 54.8295 281.685 55.3595 281.788 55.9025C281.957 56.7865 282.617 57.1425 283.772 56.9705L295.688 55.1995L295.861 51.6075ZM303.239 60.1055L282.812 63.1435C279.85 63.5845 277.762 63.6335 276.549 63.2905C275.213 62.9275 274.404 62.0005 274.12 60.5055C273.964 59.6895 273.921 58.6295 273.988 57.3245L274.082 55.9485C274.231 52.9895 274.931 50.9625 276.188 49.8675C277.444 48.7725 279.898 47.9535 283.552 47.4075L296.152 45.5345C296.179 44.6905 296.148 44.0665 296.071 43.6585C295.928 42.9095 295.397 42.5005 294.472 42.4285C294.068 42.3825 293.251 42.4525 292.02 42.6365L275.861 45.0385L276.186 38.9605L295.288 36.1195C298.249 35.6795 300.369 35.6355 301.642 35.9875C302.916 36.3385 303.695 37.2625 303.979 38.7575C304.135 39.5735 304.178 40.6335 304.11 41.9395L303.239 60.1055ZM268.963 65.2035L262.672 66.1385C259.711 66.5825 257.602 66.6225 256.346 66.2685C255.094 65.9115 254.322 64.9875 254.037 63.4855C253.881 62.6685 253.837 61.6085 253.906 60.3035L255.129 33.7035L263.034 32.5265L262.645 40.9735C263.03 40.9165 265.539 40.5445 270.187 39.8525L269.906 45.9235L262.301 47.0555L261.867 56.7165C261.838 57.5595 261.869 58.1835 261.946 58.5925C262.095 59.3725 262.628 59.7845 263.546 59.8225C263.91 59.8735 264.709 59.8055 265.94 59.6245L269.287 59.1275L268.963 65.2035ZM249.637 60.9465C249.488 63.9065 248.797 65.9305 247.561 67.0255C246.324 68.1175 243.861 68.9385 240.166 69.4875L218.815 72.6635L219.141 66.5845L239.568 63.5465C240.492 63.4085 241.203 63.0935 241.704 62.6005C242.202 62.1055 242.404 61.6025 242.306 61.0955C242.132 60.1765 241.275 59.8325 239.736 60.0595L228.021 61.8035C225.444 62.1875 223.403 61.9655 221.903 61.1495C220.664 60.4605 219.919 59.4515 219.666 58.1355C219.597 57.7595 219.568 57.3975 219.579 57.0455L219.739 54.4625C219.89 51.5105 220.583 49.4935 221.819 48.4015C223.057 47.3185 225.523 46.4955 229.214 45.9475L250.566 42.7715L250.24 48.8505L230.332 51.8095C229.33 51.9585 228.554 52.2935 228 52.8125C227.446 53.3325 227.222 53.8645 227.325 54.4085C227.505 55.3595 228.444 55.7105 230.137 55.4595L242.486 53.6215C246.563 53.0155 248.923 54.3945 249.563 57.7595C249.679 58.3725 249.741 59.0085 249.75 59.6735L249.637 60.9465ZM214.142 73.3585L206.294 74.5265L207.924 40.7255L215.716 39.5665L214.142 73.3585ZM193.899 66.8365L194.186 60.7005C194.211 59.8565 194.183 59.2335 194.104 58.8245C193.962 58.0785 193.428 57.6675 192.507 57.5945C192.103 57.5515 191.274 57.6215 190.044 57.8025L183.736 58.7435C181.954 59.0085 180.831 59.3325 180.35 59.7195C179.774 60.2225 179.441 61.2785 179.343 62.9005L179.058 69.0335C179.032 69.8775 179.062 70.5015 179.139 70.9095C179.287 71.6915 179.821 72.1015 180.737 72.1395C181.113 72.1885 181.912 72.1225 183.143 71.9395L189.451 71.0015C191.27 70.7305 192.438 70.3745 192.966 69.9285C193.493 69.4825 193.815 68.4555 193.899 66.8365ZM201.569 68.0985C201.42 71.0555 200.718 73.0825 199.462 74.1775C198.208 75.2745 195.733 76.0965 192.04 76.6455L179.863 78.4565C176.904 78.8975 174.794 78.9405 173.539 78.5865C172.284 78.2295 171.515 77.3055 171.231 75.8065C171.074 74.9935 171.032 73.9335 171.099 72.6285L171.62 61.6465C171.766 58.6865 172.468 56.6605 173.723 55.5645C174.979 54.4705 177.434 53.6475 181.089 53.1055L193.263 51.2945C196.227 50.8535 198.344 50.8095 199.618 51.1615C200.892 51.5155 201.671 52.4405 201.956 53.9345C202.111 54.7515 202.154 55.8105 202.087 57.1145L201.569 68.0985ZM166.377 46.9045L164.745 80.7055L156.84 81.8805L157.507 67.9935L143.292 70.1075L142.587 84.0025L134.797 85.1595L136.37 51.3675L144.218 50.1995L143.57 64.0365L157.803 61.9175L158.471 48.0795L166.377 46.9045Z" fill="white"/>
<path fill-rule="evenodd" clip-rule="evenodd" d="M363.647 52.976L355.783 54.033L358.029 20.256L365.834 19.207L363.647 52.976Z" fill="white"/>
<path fill-rule="evenodd" clip-rule="evenodd" d="M391.824 49.1937L369.896 52.1377L372.173 18.1987L380.04 17.1427L378.172 45.0107L392.204 43.1287L391.824 49.1937Z" fill="white"/>
<path fill-rule="evenodd" clip-rule="evenodd" d="M344.693 81.0189C344.339 81.4669 344.171 81.7029 343.944 81.8779C328.172 93.9229 312.408 105.978 296.568 117.952C295.551 118.72 293.898 119.323 292.601 119.242C275.628 118.171 258.664 116.965 241.697 115.785C240.981 115.733 240.275 115.574 238.859 115.355C245.811 108.043 252.868 101.564 258.618 94.2769C263.563 88.0109 269.777 86.3319 277.848 85.8679C294.938 84.8819 311.967 83.0859 329.028 81.6569C334.145 81.2269 339.274 80.9139 345.122 80.4949C344.951 80.6979 344.813 80.8699 344.693 81.0189ZM289.286 123.375C287.519 124.839 285.973 126.137 284.365 127.367C276.708 133.216 269.039 139.051 261.294 144.809C260.36 145.503 258.808 146.251 257.781 146.047C244.693 143.415 231.648 140.614 217.651 137.657C218.567 136.695 219.444 135.77 220.297 134.876C222.85 132.195 225.152 129.774 227.455 127.351C228.049 126.725 228.675 126.114 229.297 125.499C230.332 124.477 231.344 123.444 232.143 122.293C234.568 118.804 237.774 117.817 242.355 118.195C257.467 119.447 272.616 120.355 287.748 121.407C288.581 121.463 289.407 121.62 291.135 121.848C290.486 122.377 289.875 122.886 289.286 123.375ZM241.849 159.708C239.145 161.772 236.43 163.831 233.62 165.779C233.136 166.117 232.327 166.412 231.672 166.438C231.454 166.446 231.253 166.427 231.087 166.369C221.474 162.965 211.91 159.454 202.344 155.95C202.025 155.834 201.793 155.53 201.134 155.005C205.66 150.267 210.149 145.515 214.739 140.844C215.065 140.508 215.797 140.295 216.434 140.268C216.646 140.26 216.848 140.272 217.022 140.309C229.83 142.947 242.618 145.659 256.315 148.542C251.055 152.604 246.47 156.171 241.849 159.708ZM226.125 171.561C221.818 174.842 217.785 177.912 213.717 180.945C213.274 181.275 212.225 181.416 211.743 181.184C203.788 177.356 195.881 173.453 187.565 169.37C191.314 165.374 194.608 161.751 198.08 158.268C198.219 158.128 198.419 158.003 198.653 157.895C199.358 157.572 200.368 157.421 200.943 157.622C203.342 158.457 205.736 159.3 208.143 160.155C215.362 162.718 222.688 165.379 230.533 168.204C229.025 169.35 227.559 170.466 226.125 171.561ZM166.932 159.089C167.157 158.443 167.169 158.325 167.233 158.238C169.561 155.04 171.193 150.213 174.434 149.126C174.623 149.061 174.821 149.013 175.025 148.977C178.072 148.454 182.5 151.037 186.207 152.244C187.832 152.776 189.441 153.367 191.113 153.999C192.631 154.572 194.2 155.18 195.906 155.81C192.002 159.921 188.334 163.784 184.523 167.796C178.52 164.822 172.768 161.977 166.932 159.089ZM149.664 150.479C151.292 147.595 152.743 144.876 154.385 142.255C154.659 141.814 155.913 141.43 156.455 141.617C161.583 143.366 166.655 145.247 172.188 147.253C169.576 150.907 167.236 154.178 164.592 157.876C159.472 155.34 154.782 153.015 149.664 150.479ZM135.939 143.687C136.901 141.396 137.696 139.144 138.839 137.039C139.125 136.508 140.691 136.036 141.385 136.252C145.198 137.438 148.924 138.847 153.293 140.394C151.446 143.644 149.866 146.425 148.065 149.596C143.976 147.605 140.148 145.739 135.939 143.687ZM124.256 137.843C125.141 135.573 125.961 133.47 126.92 131.011C130.258 132.181 133.329 133.181 136.303 134.365C136.815 134.57 137.334 135.679 137.152 136.162C136.349 138.292 135.289 140.346 134.17 142.755C130.709 141.04 127.633 139.517 124.256 137.843ZM128.619 126.792C128.841 125.656 129.499 124.119 130.458 121.882C134.135 122.637 137.892 123.407 142.351 124.321C141.086 127.299 139.959 129.951 138.673 132.973C137.035 132.408 136.012 132.059 134.996 131.702C130.242 130.035 128.461 129.41 128.541 127.429C128.549 127.232 128.575 127.021 128.619 126.792ZM132.411 115.993C132.575 115.51 132.748 115.031 132.924 114.549C132.968 114.433 133.006 114.315 133.05 114.198C133.053 114.19 133.057 114.178 133.06 114.171C133.258 113.65 133.463 113.131 133.683 112.617C133.916 112.076 134.928 111.425 135.553 111.449H135.555C139.45 111.584 143.337 111.895 147.207 112.146C147.207 112.792 147.274 113.028 147.195 113.214C146.787 114.182 146.445 115.052 146.145 115.828C144.553 119.969 144.228 121.485 142.049 121.477C140.276 121.472 137.28 120.458 131.381 119.026C131.732 118.017 132.065 117.004 132.411 115.993ZM137.349 102.599C137.877 101.213 138.407 99.8419 138.967 98.4889C139.013 98.3769 139.108 98.2689 139.236 98.1689C139.619 97.8689 140.29 97.6389 140.78 97.5909C145.16 97.1469 149.551 96.8009 154.86 96.3449C152.824 100.929 151.251 104.691 149.429 108.36C149.108 109.005 147.733 109.638 146.871 109.611C143.196 109.492 139.528 109.122 135.035 108.781C135.841 106.635 136.591 104.594 137.349 102.599ZM158.064 96.0899C158.916 96.0119 159.769 95.9359 160.624 95.8609C166.607 95.3369 172.702 94.8629 179.63 94.3039C176.248 100.17 173.441 105.086 170.549 109.965C170.371 110.268 169.976 110.592 169.573 110.799C169.332 110.922 169.087 111.014 168.885 111.003H168.884C164.507 110.783 160.132 110.498 155.499 110.192C153.955 110.092 152.38 109.987 150.769 109.884C152.838 105.229 154.589 101.202 156.452 97.2179C156.686 96.7169 157.475 96.1419 158.064 96.0899ZM181.41 94.7769C181.642 94.3819 182.373 94.0339 182.908 93.9879C188.794 93.4789 194.683 92.9899 200.83 92.4849C204.519 92.1809 208.298 91.8709 212.225 91.5469C212.225 91.5469 212.225 91.5489 212.223 91.5489H212.225C211.785 92.2059 211.425 92.7549 211.088 93.2659C210.464 94.2149 209.959 94.9809 209.436 95.7089C207.5 98.3939 205.572 101.082 203.627 103.76C201.911 106.127 200.181 108.485 198.405 110.816C198.274 110.99 198.11 111.165 197.931 111.341C197.181 112.079 196.087 112.76 195.218 112.785C195.181 112.787 195.137 112.795 195.099 112.795H195.098C189.745 112.558 184.399 112.157 179.056 111.745C177.273 111.608 175.493 111.47 173.713 111.335C173.381 111.311 173.073 111.065 172.198 110.667C175.274 105.335 178.304 100.04 181.41 94.7769ZM186.769 131.048C190.519 125.813 193.873 121.037 197.384 116.35C197.558 116.12 197.912 115.944 198.31 115.811C198.838 115.636 199.453 115.544 199.937 115.574C202.51 115.73 205.084 115.895 207.663 116.063C215.403 116.567 223.199 117.109 231.245 117.655C230.896 118.385 230.726 118.99 230.46 119.46C230.37 119.617 230.274 119.759 230.153 119.885C225.26 125.059 220.356 130.221 215.331 135.292C215.161 135.462 214.939 135.632 214.69 135.79C214.067 136.179 213.263 136.481 212.623 136.494C212.494 136.495 212.373 136.486 212.261 136.465C203.999 134.821 195.785 132.992 186.769 131.048ZM184.104 134.778C184.528 134.222 185.804 133.71 186.515 133.851C194.745 135.484 202.942 137.247 211.795 139.112C207.021 144.147 202.796 148.656 198.473 153.088C198.193 153.375 197.626 153.613 197.096 153.715C196.992 153.738 196.881 153.769 196.782 153.777C196.581 153.791 196.399 153.777 196.256 153.73C192.891 152.564 189.538 151.372 186.138 150.148C182.736 148.926 179.286 147.672 175.725 146.385C176.838 144.828 177.895 143.338 178.94 141.871C180.677 139.428 182.362 137.079 184.104 134.778ZM155.982 139.27C157.923 135.863 159.613 132.768 161.476 129.754C161.778 129.262 162.929 128.777 163.535 128.897C169.639 130.104 175.712 131.44 182.528 132.894C179.588 137 177.166 140.525 174.537 143.923C174.124 144.459 172.906 144.977 172.146 144.947C172.035 144.941 171.938 144.925 171.849 144.899C166.679 143.201 161.597 141.295 155.982 139.273V139.27ZM156.098 127.27C157.457 127.556 158.841 127.848 160.263 128.148C158.395 131.443 156.822 134.441 154.968 137.298C154.714 137.689 153.726 137.981 152.93 137.998C152.664 138.003 152.419 137.979 152.229 137.916C149.317 136.961 146.459 135.881 143.441 134.745C142.435 134.364 141.41 133.981 140.36 133.592C141.179 131.697 141.957 129.897 142.743 128.079C143.215 126.988 143.689 125.891 144.178 124.758C148.172 125.601 152.023 126.412 156.098 127.27ZM170.18 114.533C170.357 114.241 170.843 113.949 171.284 113.833C171.432 113.795 171.572 113.777 171.698 113.781C179.265 114.217 186.826 114.72 195.303 115.266C191.53 120.469 188.28 125.023 184.899 129.497C184.641 129.843 183.889 130.086 183.238 130.13C183.02 130.145 182.814 130.137 182.642 130.102C176.423 128.875 170.232 127.534 163.394 126.091C163.996 125.059 164.583 124.05 165.156 123.061C166.881 120.096 168.505 117.303 170.18 114.533ZM162.465 124.199C162.419 124.276 162.353 124.352 162.274 124.429C161.73 124.959 160.539 125.402 159.855 125.277C155.192 124.44 150.578 123.38 145.348 122.269C146.737 119.031 147.835 116.279 149.132 113.603C149.392 113.065 150.422 112.457 151.065 112.484C156.675 112.727 162.278 113.108 168.55 113.49C166.321 117.474 164.514 120.895 162.465 124.199ZM226.384 90.1599C229.236 90.1849 232.088 90.0779 234.937 89.9009C242.637 89.4189 250.342 88.3929 258.044 87.7569C258.328 87.7329 258.614 87.7299 259.003 87.7359C259.199 87.7389 259.418 87.7409 259.676 87.7439C259.934 87.7469 260.233 87.7489 260.582 87.7489C256.39 92.2309 252.677 96.2279 248.925 100.202C244.74 104.632 240.564 109.073 236.276 113.428C235.455 114.263 234.098 115.314 233.058 115.255C225.416 114.836 217.764 114.311 209.826 113.759C206.534 113.53 203.204 113.297 199.785 113.063C200.391 112.208 200.991 111.399 201.589 110.587C204.236 106.997 206.777 103.714 208.8 100.218C210.438 97.3879 212.274 95.0929 214.58 93.4159C214.731 93.3069 214.891 93.2089 215.046 93.1039C215.228 92.9789 215.409 92.8509 215.598 92.7339C215.633 92.7119 215.672 92.6949 215.707 92.6739C218.485 90.9999 221.912 90.1249 226.384 90.1599ZM366.787 62.3409C342.434 65.7259 318.08 69.0899 293.732 72.4879C275.723 74.9989 257.723 77.5639 239.714 80.0729C220.116 82.8029 200.506 85.4869 180.903 88.2119C163.858 90.5819 146.818 93.0039 129.765 95.3419C127.671 95.6279 126.542 96.1859 127.524 98.4909C130.554 98.3289 133.564 98.1669 137.109 97.9749C136.119 100.778 135.227 103.126 134.471 105.513C133.908 107.284 133.391 108.838 130.644 108.616C129.885 108.554 129.029 109.427 127.52 110.251C129.57 110.808 130.684 111.111 132.403 111.576C130.214 113.941 132.275 118.18 127.036 118.739C126.881 118.755 126.553 120.336 126.915 120.847C128.882 123.626 127.115 127.621 124.56 128.197C124.133 131.286 123.758 133.999 123.349 136.962C121.13 136.279 119.889 135.894 118.716 135.533C115.239 139.492 119.692 140.095 121.762 141.201C150.169 156.373 178.653 171.434 207.099 186.549C207.896 186.972 208.484 187.703 209.168 188.288H209.911C210.479 187.732 210.984 187.111 211.629 186.632C224.912 176.701 238.222 166.8 251.506 156.87C290.145 127.991 328.779 99.1069 367.405 70.2149C371.374 67.2469 375.274 64.2079 379.208 61.2009C374.794 61.2079 370.793 61.7869 366.787 62.3409Z" fill="white"/>
<path d="M344.687 81.0272C344.333 81.4752 344.165 81.7112 343.938 81.8862C328.166 93.9312 312.402 105.985 296.563 117.96C295.546 118.727 293.892 119.33 292.595 119.25C275.622 118.178 258.658 116.973 241.692 115.793C240.976 115.74 240.269 115.582 238.854 115.362C245.805 108.05 252.862 101.571 258.612 94.2852C263.557 88.0192 269.771 86.3402 277.842 85.8762C294.932 84.8902 311.962 83.0942 329.022 81.6652C334.139 81.2352 339.268 80.9212 345.116 80.5022C344.945 80.7052 344.807 80.8782 344.687 81.0272ZM289.28 123.382C287.513 124.847 285.967 126.145 284.359 127.374C276.703 133.223 269.033 139.059 261.289 144.816C260.355 145.51 258.803 146.259 257.775 146.054C244.687 143.423 231.643 140.622 217.645 137.665C218.561 136.702 219.439 135.777 220.291 134.883C222.844 132.202 225.147 129.781 227.449 127.358C228.044 126.732 228.67 126.121 229.291 125.506C230.327 124.485 231.339 123.451 232.137 122.3C234.562 118.811 237.768 117.824 242.349 118.202C257.461 119.454 272.61 120.363 287.742 121.414C288.575 121.47 289.402 121.628 291.13 121.855C290.481 122.384 289.87 122.893 289.28 123.382ZM241.843 159.715C239.14 161.78 236.424 163.838 233.615 165.786C233.131 166.124 232.322 166.419 231.667 166.445C231.449 166.453 231.247 166.434 231.081 166.376C221.469 162.973 211.905 159.461 202.339 155.957C202.019 155.841 201.788 155.537 201.129 155.012C205.654 150.274 210.144 145.522 214.734 140.851C215.06 140.516 215.791 140.302 216.428 140.276C216.641 140.267 216.843 140.279 217.016 140.316C229.825 142.954 242.612 145.666 256.31 148.55C251.049 152.611 246.464 156.179 241.843 159.715ZM226.12 171.569C221.812 174.849 217.78 177.919 213.712 180.952C213.269 181.282 212.219 181.423 211.737 181.191C203.783 177.363 195.876 173.46 187.56 169.378C191.309 165.381 194.603 161.759 198.074 158.275C198.214 158.136 198.413 158.01 198.648 157.902C199.353 157.58 200.363 157.429 200.937 157.629C203.337 158.464 205.731 159.308 208.138 160.162C215.357 162.725 222.683 165.386 230.528 168.211C229.019 169.357 227.554 170.473 226.12 171.569ZM166.927 159.097C167.152 158.45 167.164 158.332 167.228 158.245C169.556 155.047 171.188 150.22 174.429 149.133C174.618 149.069 174.816 149.02 175.02 148.984C178.066 148.461 182.495 151.044 186.201 152.252C187.827 152.783 189.436 153.374 191.108 154.007C192.626 154.579 194.196 155.187 195.901 155.818C191.996 159.928 188.329 163.791 184.518 167.803C178.515 164.829 172.763 161.984 166.927 159.097ZM149.659 150.487C151.287 147.603 152.738 144.883 154.38 142.262C154.654 141.821 155.909 141.437 156.45 141.624C161.578 143.373 166.65 145.254 172.183 147.26C169.57 150.914 167.231 154.185 164.588 157.883C159.467 155.348 154.777 153.022 149.659 150.487ZM135.934 143.695C136.896 141.403 137.691 139.151 138.834 137.046C139.12 136.515 140.686 136.043 141.38 136.259C145.193 137.445 148.919 138.854 153.288 140.402C151.441 143.652 149.861 146.433 148.06 149.603C143.971 147.612 140.143 145.746 135.934 143.695ZM124.251 137.851C125.137 135.58 125.956 133.478 126.915 131.018C130.253 132.188 133.323 133.188 136.298 134.372C136.81 134.578 137.33 135.686 137.147 136.17C136.344 138.299 135.284 140.354 134.165 142.762C130.705 141.048 127.628 139.525 124.251 137.851ZM128.614 126.8C128.836 125.663 129.494 124.126 130.453 121.889C134.13 122.644 137.887 123.415 142.346 124.329C141.081 127.307 139.954 129.958 138.668 132.98C137.03 132.415 136.007 132.066 134.991 131.71C130.238 130.042 128.456 129.418 128.536 127.436C128.536 127.239 128.57 127.029 128.614 126.8ZM132.406 116.001C132.57 115.518 132.743 115.038 132.92 114.557C132.963 114.441 133.001 114.323 133.045 114.206L133.056 114.178C133.253 113.657 133.458 113.138 133.678 112.624C133.911 112.083 134.923 111.432 135.548 111.457H135.55C139.445 111.591 143.332 111.902 147.202 112.154C147.202 112.8 147.269 113.035 147.19 113.222C146.782 114.19 146.44 115.06 146.14 115.835C144.548 119.976 144.223 121.493 142.044 121.484C140.271 121.479 137.275 120.465 131.376 119.033C131.727 118.025 132.06 117.012 132.406 116.001ZM137.344 102.607C137.872 101.22 138.403 99.8502 138.962 98.4962C139.008 98.3852 139.103 98.2772 139.232 98.1772C139.614 97.8772 140.285 97.6472 140.775 97.5982C145.155 97.1552 149.546 96.8092 154.854 96.3522C152.819 100.937 151.245 104.699 149.424 108.367C149.103 109.012 147.728 109.646 146.866 109.618C143.192 109.5 139.523 109.129 135.03 108.789C135.836 106.643 136.587 104.602 137.344 102.607ZM158.059 96.0982C158.911 96.0202 159.764 95.9442 160.619 95.8692C166.602 95.3442 172.697 94.8712 179.625 94.3112C176.243 100.177 173.436 105.094 170.544 109.973C170.365 110.276 169.971 110.6 169.568 110.807C169.327 110.929 169.082 111.021 168.88 111.011L168.879 111.01C164.502 110.79 160.127 110.505 155.495 110.2C153.949 110.1 152.375 109.994 150.764 109.891C152.833 105.237 154.584 101.209 156.447 97.2262C156.681 96.7252 157.47 96.1492 158.059 96.0982ZM181.405 94.7852C181.636 94.3902 182.368 94.0422 182.903 93.9952C188.789 93.4872 194.678 92.9972 200.825 92.4922C204.513 92.1892 208.293 91.8792 212.219 91.5542L212.218 91.5572C211.779 92.2142 211.419 92.7622 211.083 93.2742C210.458 94.2232 209.954 94.9892 209.43 95.7172C207.495 98.4022 205.567 101.089 203.622 103.767C201.906 106.134 200.176 108.493 198.4 110.823C198.269 110.997 198.104 111.173 197.925 111.348C197.176 112.087 196.082 112.767 195.213 112.792L195.094 112.802C189.741 112.565 184.394 112.165 179.051 111.753C177.268 111.616 175.488 111.478 173.707 111.343C173.376 111.319 173.068 111.072 172.193 110.675C175.269 105.342 178.299 100.047 181.405 94.7852ZM186.764 131.055C190.514 125.82 193.868 121.044 197.379 116.357C197.553 116.128 197.907 115.952 198.305 115.819C198.833 115.643 199.448 115.551 199.931 115.582C202.505 115.737 205.078 115.903 207.658 116.07C215.398 116.574 223.194 117.116 231.239 117.662C230.891 118.393 230.72 118.998 230.455 119.468C230.365 119.625 230.269 119.766 230.148 119.893C225.255 125.066 220.351 130.229 215.326 135.3C215.155 135.469 214.934 135.64 214.685 135.797C214.061 136.186 213.258 136.489 212.617 136.501C212.489 136.502 212.255 136.472 212.255 136.472C203.993 134.829 195.78 132.999 186.764 131.055ZM184.099 134.785C184.523 134.229 185.799 133.717 186.51 133.859C194.74 135.491 202.937 137.254 211.79 139.119C207.016 144.154 202.79 148.663 198.468 153.096C198.188 153.382 197.62 153.62 197.091 153.723L196.777 153.785C196.576 153.798 196.394 153.785 196.25 153.737C192.886 152.571 189.532 151.38 186.133 150.155C182.731 148.933 179.281 147.679 175.72 146.392C176.833 144.835 177.891 143.345 178.935 141.879C180.672 139.435 182.357 137.086 184.099 134.785ZM155.978 139.277C157.918 135.87 159.608 132.775 161.471 129.761C161.773 129.269 162.924 128.785 163.53 128.905C169.633 130.112 175.707 131.447 182.523 132.902C179.583 137.007 177.161 140.532 174.532 143.93C174.119 144.466 172.901 144.985 172.141 144.954C172.141 144.954 171.933 144.932 171.844 144.906C166.675 143.208 161.592 141.302 155.978 139.281V139.277ZM156.093 127.277C157.452 127.563 158.836 127.855 160.258 128.155C158.39 131.45 156.817 134.448 154.963 137.305C154.708 137.696 153.722 137.988 152.925 138.005C152.659 138.01 152.414 137.986 152.224 137.923C149.312 136.968 146.454 135.889 143.436 134.752C142.43 134.372 141.405 133.988 140.355 133.6C141.175 131.704 141.952 129.904 142.738 128.087C143.21 126.996 143.684 125.898 144.173 124.766C148.166 125.608 152.018 126.419 156.093 127.277ZM170.175 114.541C170.352 114.249 170.838 113.957 171.28 113.84C171.427 113.803 171.567 113.784 171.693 113.789C179.26 114.224 186.821 114.727 195.298 115.273C191.525 120.476 188.275 125.031 184.894 129.504C184.636 129.85 183.884 130.094 183.233 130.137C183.015 130.153 182.809 130.144 182.637 130.11C176.418 128.882 170.227 127.542 163.39 126.098C163.991 125.066 164.578 124.058 165.151 123.068C166.875 120.103 168.5 117.311 170.175 114.541ZM162.461 124.207C162.414 124.283 162.348 124.36 162.27 124.436C161.725 124.966 160.534 125.409 159.85 125.285C155.187 124.447 150.574 123.387 145.343 122.277C146.732 119.038 147.83 116.286 149.127 113.61C149.387 113.072 150.418 112.464 151.06 112.491C156.67 112.735 162.273 113.116 168.545 113.497C166.316 117.482 164.509 120.903 162.461 124.207ZM226.379 90.1682C229.23 90.1932 232.082 90.0862 234.931 89.9082C242.631 89.4272 250.336 88.4002 258.039 87.7652C258.322 87.7412 258.609 87.7382 258.998 87.7442C259.193 87.7462 259.412 87.7492 259.671 87.7512C259.929 87.7542 260.228 87.7562 260.576 87.7562C256.385 92.2382 252.671 96.2362 248.92 100.209C244.734 104.64 240.559 109.081 236.271 113.435C235.45 114.27 234.092 115.321 233.052 115.262C225.411 114.843 217.758 114.319 209.82 113.767C206.529 113.537 203.199 113.304 199.779 113.07C200.386 112.216 200.986 111.406 201.584 110.594C204.231 107.004 206.772 103.722 208.794 100.225C210.433 97.3962 212.268 95.1012 214.574 93.4242C214.726 93.3142 214.886 93.2172 215.041 93.1112C215.223 92.9872 215.404 92.8592 215.593 92.7422L215.701 92.6822C218.479 91.0082 221.906 90.1332 226.379 90.1682ZM366.78 62.3492C342.428 65.7332 318.075 69.0982 293.726 72.4962C275.717 75.0062 257.717 77.5722 239.709 80.0812C220.11 82.8102 200.5 85.4942 180.898 88.2192C163.854 90.5902 146.813 93.0112 129.76 95.3502C127.666 95.6362 126.537 96.1932 127.519 98.4992C130.549 98.3362 133.559 98.1742 137.104 97.9822C136.115 100.785 135.222 103.134 134.466 105.521C133.903 107.291 133.386 108.846 130.639 108.623C129.881 108.562 129.025 109.435 127.515 110.259C129.566 110.816 130.679 111.119 132.398 111.584C130.21 113.948 132.27 118.187 127.032 118.746C126.875 118.763 126.548 120.344 126.911 120.855C128.877 123.633 127.111 127.629 124.555 128.204C124.128 131.294 123.754 134.007 123.344 136.97C121.125 136.286 119.884 135.902 118.711 135.54C115.235 139.5 119.687 140.103 121.757 141.209C150.164 156.38 178.648 171.441 207.094 186.556C207.891 186.979 208.479 187.71 209.163 188.295H209.906C210.474 187.739 210.979 187.118 211.623 186.639C224.907 176.708 238.216 166.808 251.5 156.877C290.139 127.999 328.773 99.1152 367.399 70.2232C371.367 67.2552 375.268 64.2162 379.202 61.2092C374.788 61.2162 370.786 61.7952 366.78 62.3492Z" stroke="white" stroke-width="0.195" stroke-miterlimit="10"/>
<path fill-rule="evenodd" clip-rule="evenodd" d="M296.568 117.952C312.409 105.978 328.172 93.923 343.944 81.878C344.171 81.702 344.339 81.467 344.693 81.019C344.339 81.467 344.171 81.702 343.942 81.878C328.172 93.923 312.408 105.978 296.568 117.952Z" fill="white"/>
<path fill-rule="evenodd" clip-rule="evenodd" d="M277.848 85.868C294.939 84.882 311.969 83.086 329.028 81.657C311.967 83.086 294.938 84.882 277.848 85.868Z" fill="white"/>
<path fill-rule="evenodd" clip-rule="evenodd" d="M261.293 144.808C269.038 139.051 276.707 133.216 284.364 127.367C285.973 126.137 287.519 124.839 289.285 123.375C287.519 124.839 285.973 126.137 284.362 127.367C276.707 133.216 269.038 139.051 261.293 144.808Z" fill="white"/>
<path fill-rule="evenodd" clip-rule="evenodd" d="M215.707 92.6742C215.673 92.6952 215.634 92.7122 215.599 92.7342C215.634 92.7132 215.673 92.6952 215.707 92.6742Z" fill="white"/>
<path fill-rule="evenodd" clip-rule="evenodd" d="M201.589 110.587C200.991 111.399 200.391 112.209 199.785 113.063C203.204 113.297 206.534 113.53 209.826 113.759C206.534 113.529 203.206 113.295 199.787 113.06C200.393 112.209 200.993 111.398 201.589 110.587Z" fill="white"/>
<path fill-rule="evenodd" clip-rule="evenodd" d="M259.003 87.7357C258.614 87.7307 258.328 87.7327 258.044 87.7567C250.343 88.3927 242.637 89.4197 234.938 89.9007C242.637 89.4227 250.344 88.3927 258.047 87.7567C258.329 87.7327 258.614 87.7307 259.003 87.7357Z" fill="white"/>
<path fill-rule="evenodd" clip-rule="evenodd" d="M216.434 140.268C215.796 140.295 215.065 140.508 214.739 140.844C210.149 145.515 205.66 150.267 201.134 155.005C205.662 150.267 210.148 145.515 214.739 140.844C215.064 140.508 215.796 140.295 216.434 140.268Z" fill="white"/>
<path fill-rule="evenodd" clip-rule="evenodd" d="M231.672 166.438C231.453 166.446 231.253 166.427 231.086 166.369C231.252 166.427 231.453 166.446 231.672 166.438Z" fill="white"/>
<path fill-rule="evenodd" clip-rule="evenodd" d="M230.459 119.46C230.726 118.99 230.896 118.384 231.244 117.654C223.198 117.108 215.402 116.566 207.662 116.063C215.402 116.566 223.198 117.108 231.242 117.654C230.896 118.384 230.726 118.99 230.459 119.46Z" fill="white"/>
<path fill-rule="evenodd" clip-rule="evenodd" d="M230.153 119.885C225.26 125.055 220.354 130.221 215.331 135.292C220.356 130.221 225.26 125.058 230.153 119.885Z" fill="white"/>
<path fill-rule="evenodd" clip-rule="evenodd" d="M198.31 115.811C198.837 115.635 199.453 115.543 199.936 115.574C199.454 115.543 198.837 115.635 198.31 115.811Z" fill="white"/>
<path fill-rule="evenodd" clip-rule="evenodd" d="M211.743 181.184C212.225 181.416 213.274 181.275 213.718 180.945C217.785 177.912 221.818 174.842 226.125 171.561C221.818 174.842 217.785 177.912 213.717 180.945C213.274 181.275 212.225 181.416 211.743 181.184Z" fill="white"/>
<path fill-rule="evenodd" clip-rule="evenodd" d="M197.931 111.341C198.11 111.166 198.274 110.99 198.405 110.817C198.274 110.987 198.11 111.166 197.931 111.341Z" fill="white"/>
<path fill-rule="evenodd" clip-rule="evenodd" d="M212.225 91.5492H212.223C211.785 92.2062 211.425 92.7552 211.087 93.2662C211.425 92.7552 211.785 92.2062 212.225 91.5492Z" fill="white"/>
<path fill-rule="evenodd" clip-rule="evenodd" d="M186.138 150.148C182.736 148.926 179.288 147.672 175.726 146.385C176.841 144.828 177.895 143.338 178.94 141.871C177.895 143.338 176.838 144.828 175.725 146.385C179.286 147.672 182.736 148.926 186.138 150.148Z" fill="white"/>
<path fill-rule="evenodd" clip-rule="evenodd" d="M184.899 129.496C184.639 129.842 183.887 130.086 183.238 130.13C183.889 130.086 184.641 129.842 184.899 129.496Z" fill="white"/>
<path fill-rule="evenodd" clip-rule="evenodd" d="M156.452 97.2172C154.589 101.201 152.838 105.229 150.769 109.884C152.84 105.229 154.589 101.204 156.452 97.2172Z" fill="white"/>
<path fill-rule="evenodd" clip-rule="evenodd" d="M160.624 95.8607C166.608 95.3367 172.704 94.8627 179.63 94.3037C172.702 94.8627 166.606 95.3367 160.624 95.8607Z" fill="white"/>
<path fill-rule="evenodd" clip-rule="evenodd" d="M169.573 110.799C169.976 110.591 170.371 110.268 170.55 109.965C170.368 110.268 169.974 110.591 169.573 110.799Z" fill="white"/>
<path fill-rule="evenodd" clip-rule="evenodd" d="M155.982 139.27C157.923 135.862 159.615 132.767 161.476 129.753C159.613 132.767 157.923 135.862 155.982 139.27Z" fill="white"/>
<path fill-rule="evenodd" clip-rule="evenodd" d="M159.855 125.277C160.539 125.402 161.73 124.959 162.274 124.428C161.731 124.959 160.541 125.402 159.855 125.277Z" fill="white"/>
<path fill-rule="evenodd" clip-rule="evenodd" d="M139.236 98.1693C139.107 98.2693 139.012 98.3773 138.967 98.4883C138.407 99.8423 137.876 101.212 137.349 102.599C137.876 101.212 138.407 99.8433 138.967 98.4913C139.012 98.3773 139.107 98.2693 139.236 98.1693Z" fill="white"/>
<path fill-rule="evenodd" clip-rule="evenodd" d="M143.441 134.745C146.459 135.881 149.317 136.961 152.229 137.916C152.419 137.979 152.664 138.003 152.93 137.998C152.664 138.003 152.419 137.976 152.229 137.913C149.317 136.959 146.459 135.881 143.441 134.745Z" fill="white"/>
<path fill-rule="evenodd" clip-rule="evenodd" d="M140.36 133.592C141.179 131.698 141.957 129.898 142.743 128.079C141.957 129.897 141.179 131.697 140.36 133.592Z" fill="white"/>
<path fill-rule="evenodd" clip-rule="evenodd" d="M135.939 143.687C136.901 141.396 137.696 139.143 138.839 137.038C137.696 139.143 136.901 141.395 135.939 143.687Z" fill="white"/>
<path fill-rule="evenodd" clip-rule="evenodd" d="M141.385 136.252C140.691 136.036 139.125 136.508 138.839 137.039C139.125 136.511 140.691 136.036 141.385 136.252Z" fill="white"/>
<path fill-rule="evenodd" clip-rule="evenodd" d="M135.555 111.449H135.553C134.928 111.425 133.916 112.075 133.682 112.616C133.463 113.131 133.258 113.65 133.06 114.171C133.258 113.65 133.463 113.131 133.684 112.616C133.916 112.075 134.928 111.427 135.555 111.449Z" fill="white"/>
<path fill-rule="evenodd" clip-rule="evenodd" d="M131.381 119.026C131.733 118.017 132.065 117.002 132.411 115.993C132.065 117.004 131.732 118.017 131.381 119.026Z" fill="white"/>
<path fill-rule="evenodd" clip-rule="evenodd" d="M134.996 131.702C136.012 132.058 137.035 132.408 138.674 132.973C137.035 132.405 136.012 132.058 134.996 131.7C130.243 130.035 128.461 129.41 128.541 127.429C128.461 129.41 130.243 130.035 134.996 131.702Z" fill="white"/>
<path fill-rule="evenodd" clip-rule="evenodd" d="M58.6636 132.481C55.8546 132.679 51.4666 131.162 49.6446 130.203C47.5516 129.1 47.5386 128.923 45.7866 127.802C44.3636 126.892 43.3056 125.767 43.1436 123.675C42.9726 121.456 44.4486 117.087 45.1566 115.481C48.6916 107.457 54.6386 101.426 62.5966 95.6498C66.5866 92.7548 71.3406 89.9738 75.9466 87.6978C77.7026 86.8298 79.4436 86.1728 81.1496 85.3408C82.9686 84.4518 84.3876 83.7968 86.1476 84.3538C87.9336 84.9188 88.9636 85.2658 90.3216 86.1838C92.8346 87.8848 95.0096 90.7958 96.3466 94.1398C98.4366 99.3728 95.9626 98.9938 91.6606 101.242C88.3686 102.962 85.5866 104.602 82.6186 106.481C76.8736 110.111 72.1446 114.176 68.3256 118.501C66.0596 121.066 65.0136 122.774 63.4346 125.556C60.8896 130.038 62.5066 132.213 58.6636 132.481Z" fill="white"/>
<path fill-rule="evenodd" clip-rule="evenodd" d="M34.0738 115.014C32.4608 110.789 32.8258 109.567 33.9748 106.332C34.8738 103.8 36.0418 101.502 37.4138 99.332C40.0718 95.131 43.8348 91.182 48.7308 87.273C53.1668 83.735 59.5528 80.073 65.6068 77.643C70.1288 75.824 71.6848 75.854 75.4828 76.686C77.8418 77.205 81.0468 78.564 82.8508 80.719C85.2458 83.576 81.6928 83.776 78.9878 84.476C76.0058 85.249 69.2598 88.471 66.7538 89.876C60.9948 93.107 56.5658 96.531 52.5148 100.653C47.7558 105.494 44.0978 111.121 41.8958 117.268C41.4748 118.445 41.2038 120.053 40.3218 120.836C37.9498 122.939 34.8408 117.022 34.0738 115.014Z" fill="white"/>
<path fill-rule="evenodd" clip-rule="evenodd" d="M107.146 136.987C103.797 137.352 95.8851 135.411 92.9301 134.67L83.1981 131.381C80.3541 130.165 73.0981 126.786 71.4721 124.686C69.3061 121.894 72.4541 117.985 74.5211 115.809C75.5651 114.711 78.4521 111.436 80.5901 112.595L92.2401 119.434C97.7561 122.104 105.841 123.742 112.601 124.432C115.198 124.696 118.703 124.177 117.222 127.721C116.577 129.262 114.511 131.503 113.29 132.894C111.904 134.468 110.356 136.638 107.146 136.987Z" fill="white"/>
<path fill-rule="evenodd" clip-rule="evenodd" d="M117.12 122.274C112.472 122.842 98.3972 119.621 93.3862 117.382C92.3282 116.909 83.4232 113.774 83.9692 111.092C84.0592 110.655 85.0192 109.122 85.2792 108.79C86.9802 106.613 90.0932 104.656 92.7142 103.189C95.5842 101.578 96.5462 102.948 98.4272 103.756C99.9542 104.41 102.114 105.097 104.095 105.484C108.284 106.305 115.952 106.771 120.5 105.703C122.045 105.34 122.741 105.792 122.625 107.319C122.223 112.587 122.816 112.595 120.944 118.312C120.434 119.866 119.881 121.934 117.12 122.274Z" fill="white"/>
<path fill-rule="evenodd" clip-rule="evenodd" d="M66.1129 70.1693C68.1109 69.5493 73.0799 69.6773 75.0429 69.8153C88.5339 70.7723 101.392 78.3043 109.77 87.6903C111.638 89.7813 113.449 92.2693 114.693 94.9723C115.83 97.4503 117.419 101.534 115.108 103.093C112.392 104.926 105.49 103.396 102.457 102.604C97.9829 101.437 98.9419 99.0533 99.3639 96.3313C99.9069 92.8443 97.7719 90.4953 96.2299 88.1983C91.6939 81.4403 84.2609 77.4013 77.2929 74.1553C75.8909 73.5023 74.8269 73.1373 73.5959 72.6263C72.7169 72.2643 67.1389 70.3253 66.1129 70.1693Z" fill="white"/>
<path fill-rule="evenodd" clip-rule="evenodd" d="M91.6973 146.725C82.6043 148.161 73.9613 144.574 68.6473 140.617C67.1423 139.492 65.3553 138.097 64.4763 136.4C63.2053 133.946 63.5843 132.365 64.3663 130.446C64.9473 129.027 66.0363 126.905 67.0723 125.764C68.0263 124.71 68.9743 125.382 69.6353 126.094C70.8933 127.447 69.6533 126.483 71.7823 128.308C77.6053 133.294 85.3933 136.386 92.7563 138C95.6523 138.636 98.7323 139.141 101.794 139.298C102.723 139.346 104.615 139.301 103.831 140.59C102.499 142.782 95.0453 146.198 91.6973 146.725Z" fill="white"/>
<path fill-rule="evenodd" clip-rule="evenodd" d="M33.8248 120.38C36.6978 120.358 43.4958 128.156 45.6838 129.827C49.1278 132.457 54.8618 133.916 60.0008 134.695C63.0518 141.604 79.1618 147.702 80.1518 148.491C78.3408 148.79 74.2628 148.483 72.5378 148.308C65.2258 147.567 58.8748 145.468 52.8288 141.922C45.7588 137.776 37.6538 129.735 33.8248 120.38Z" fill="white"/>
<path fill-rule="evenodd" clip-rule="evenodd" d="M67.6182 73.8075C64.9272 75.5175 57.3612 76.0945 46.1232 86.1245C37.5322 93.7955 33.9222 101.725 33.2632 102.35C33.0962 100.742 33.7192 97.8505 34.1212 96.5065C35.7632 91.0335 39.0912 86.4165 43.7672 82.1055C46.5952 79.4995 56.9392 71.7585 61.6872 71.5965C62.9292 71.5555 63.8412 71.8235 64.8722 72.1685C65.6172 72.4175 65.6212 72.5265 66.3042 72.8745C66.9492 73.2065 67.3262 73.0695 67.6182 73.8075Z" fill="white"/>
<path fill-rule="evenodd" clip-rule="evenodd" d="M78.8345 68.4955C82.0775 68.1065 90.3755 70.1125 93.4785 71.0425C102.93 73.8725 111.399 79.9565 116.295 88.0865C117.259 89.6875 124.855 105.067 119.66 104.404C117.878 104.178 117.957 100.96 117.586 99.2235C115.164 87.8495 107.082 79.2865 96.0555 73.8725C90.7325 71.2555 84.9025 69.7205 78.8345 68.4955Z" fill="white"/>
<path fill-rule="evenodd" clip-rule="evenodd" d="M26.7857 105.008L26.1947 106.924L18.3007 103.332L17.8237 104.872L16.0977 104.078L17.1697 100.61L26.7857 105.008Z" fill="white"/>
<path fill-rule="evenodd" clip-rule="evenodd" d="M29.0054 96.2338L27.1344 103.776L23.3924 102.276C22.9214 102.083 22.5344 101.818 22.2344 101.48C21.7374 100.934 21.5814 100.288 21.7644 99.5478L22.4264 96.8878C22.5364 96.4418 22.5574 96.1478 22.4914 96.0038C22.4164 95.8088 22.1354 95.6208 21.6514 95.4338L21.4394 95.3338C21.1804 95.2368 20.9864 95.1768 20.8584 95.1498C20.6204 95.1038 20.4414 95.1858 20.3244 95.3908C20.2784 95.4828 20.2174 95.6798 20.1424 95.9848L19.7564 97.5418C19.5854 98.2338 19.8424 98.7178 20.5314 98.9908L20.0504 100.934L19.3414 100.648C18.4694 100.302 17.9364 99.9188 17.7464 99.5028C17.5594 99.1148 17.5794 98.4668 17.8054 97.5528L18.5534 94.5388C18.7364 93.7978 18.9374 93.3068 19.1544 93.0718C19.4034 92.7988 19.7694 92.7098 20.2544 92.8038C20.5014 92.8528 20.8214 92.9528 21.2114 93.1088L23.1674 93.8928C23.6294 94.0828 23.9844 94.3988 24.2344 94.8478C24.5284 95.3938 24.5854 96.0308 24.4034 96.7668L23.7164 99.5338C23.6444 99.8208 23.6714 100.035 23.7954 100.172C23.9184 100.311 24.1814 100.459 24.5824 100.615L25.8424 101.137L27.2364 95.5178L29.0054 96.2338Z" fill="white"/>
<path fill-rule="evenodd" clip-rule="evenodd" d="M30.6573 93.1718L29.6913 94.9658L28.1953 93.9678L29.1693 92.1578L30.6573 93.1718Z" fill="white"/>
<path fill-rule="evenodd" clip-rule="evenodd" d="M33.4259 88.2196L32.4059 89.9926L25.4989 85.0626L24.6779 86.4876L23.1699 85.4006L25.0159 82.1946L33.4259 88.2196Z" fill="white"/>
<path fill-rule="evenodd" clip-rule="evenodd" d="M39.1168 80.7728L33.9868 87.0218L31.2368 84.3218C30.8898 83.9788 30.6578 83.5998 30.5348 83.1838C30.3288 82.5078 30.4768 81.8618 30.9808 81.2468L32.7908 79.0458C33.0938 78.6758 33.2478 78.4108 33.2528 78.2558C33.2708 78.0508 33.0998 77.7798 32.7408 77.4378L32.5918 77.2698C32.3988 77.0878 32.2478 76.9668 32.1408 76.8978C31.9458 76.7728 31.7448 76.7828 31.5418 76.9298C31.4608 76.9968 31.3148 77.1558 31.1088 77.4098L30.0488 78.6998C29.5778 79.2728 29.5958 79.8078 30.1018 80.3028L28.7808 81.9108L28.2608 81.3998C27.6188 80.7708 27.3038 80.2318 27.3188 79.7838C27.3218 79.3648 27.6348 78.7748 28.2558 78.0188L30.3068 75.5238C30.8118 74.9078 31.2168 74.5288 31.5228 74.3888C31.8728 74.2258 32.2498 74.2748 32.6518 74.5338C32.8568 74.6638 33.1028 74.8698 33.3898 75.1508L34.8278 76.5618C35.1658 76.8978 35.3468 77.3158 35.3738 77.8128C35.3958 78.4178 35.1578 79.0238 34.6578 79.6318L32.7738 81.9268C32.5808 82.1618 32.5088 82.3678 32.5578 82.5378C32.6088 82.7078 32.7818 82.9378 33.0778 83.2238L33.9958 84.1468L37.8198 79.4918L39.1168 80.7728Z" fill="white"/>
<path fill-rule="evenodd" clip-rule="evenodd" d="M47.7178 73.9232L45.9618 75.1662L41.9768 68.1552L40.5638 69.1532L39.6978 67.6112L42.8778 65.3652L47.7178 73.9232Z" fill="white"/>
<path fill-rule="evenodd" clip-rule="evenodd" d="M52.8702 64.725L52.4922 63.544C52.4102 63.317 52.3402 63.152 52.2772 63.05C52.1612 62.86 51.9762 62.795 51.7212 62.849C51.6182 62.865 51.4042 62.953 51.0852 63.106L49.5112 63.863C49.0512 64.082 48.7842 64.269 48.7022 64.42C48.5952 64.593 48.6092 64.898 48.7562 65.339L48.8272 65.552C48.9112 65.79 48.9872 65.963 49.0552 66.077C49.2092 66.326 49.4712 66.36 49.8382 66.185L52.8702 64.725ZM56.0252 67.236C56.2982 68.05 56.3252 68.65 56.1052 69.037C55.8872 69.426 55.3122 69.845 54.3832 70.29L51.3162 71.764C49.9992 72.399 49.1102 72.342 48.6522 71.599C48.5412 71.418 48.4412 71.197 48.3532 70.926L48.1342 70.267L50.1092 69.317C50.1712 69.499 50.2302 69.637 50.2892 69.728C50.4842 70.047 50.8872 70.058 51.4972 69.764L53.0772 69.004C53.5352 68.785 53.8012 68.607 53.8792 68.468C53.9952 68.291 53.9782 67.977 53.8272 67.528L53.4382 66.369L49.5432 68.242C48.5432 68.72 47.8202 68.599 47.3722 67.869C47.3042 67.758 47.2472 67.636 47.2032 67.501L46.5742 65.625C46.3072 64.82 46.2822 64.222 46.5042 63.828C46.7252 63.433 47.2962 63.015 48.2152 62.571L51.2972 61.09C52.0432 60.73 52.5912 60.551 52.9412 60.549C53.3362 60.536 53.6492 60.719 53.8802 61.095C54.0072 61.3 54.1302 61.581 54.2472 61.936L56.0252 67.236Z" fill="white"/>
<path fill-rule="evenodd" clip-rule="evenodd" d="M61.6802 64.0272L61.0202 60.2362L59.4762 64.7712L61.6802 64.0272ZM65.2242 64.5842L64.0622 64.9762L64.3622 66.5632L62.2612 67.2742L61.9752 65.6792L57.5892 67.1612L57.2942 65.4922L59.8892 58.0592L62.6712 57.1192L63.7802 63.3192L64.9182 62.9332L65.2242 64.5842Z" fill="white"/>
<path fill-rule="evenodd" clip-rule="evenodd" d="M73.9674 62.6361L74.0014 62.4141C74.0364 62.1681 74.0494 61.9881 74.0384 61.8711C74.0154 61.5791 73.7934 61.4471 73.3764 61.4731L70.7024 61.6461C70.3724 61.6681 70.1504 61.7521 70.0364 61.8951C69.9194 62.0411 69.8344 62.3061 69.7784 62.6901L69.7434 62.9121C69.7114 63.1501 69.6974 63.3241 69.7084 63.4411C69.7264 63.6651 69.8644 63.7931 70.1214 63.8251C70.2244 63.8461 70.4494 63.8461 70.8014 63.8251L72.6004 63.7091C73.1144 63.6731 73.4544 63.6001 73.6164 63.4871C73.7774 63.3731 73.8944 63.0931 73.9674 62.6361ZM74.5764 58.7271L74.6094 58.5191C74.6414 58.2731 74.6534 58.0921 74.6434 57.9761C74.6254 57.7621 74.4884 57.6331 74.2314 57.5921C74.1304 57.5781 73.8984 57.5841 73.5344 57.6081L71.7554 57.7241C71.2384 57.7571 70.9054 57.8251 70.7604 57.9221C70.5834 58.0491 70.4574 58.3411 70.3844 58.7951L70.3524 59.0031C70.3154 59.2491 70.3034 59.4301 70.3124 59.5471C70.3294 59.7601 70.4684 59.8891 70.7264 59.9301C70.8264 59.9441 71.0524 59.9381 71.4044 59.9161L73.2064 59.7981C73.7234 59.7651 74.0624 59.6951 74.2244 59.5861C74.3874 59.4781 74.5044 59.1921 74.5764 58.7271ZM76.0884 63.1741C75.9704 64.0011 75.7174 64.5541 75.3314 64.8361C74.9454 65.1151 74.2244 65.2871 73.1704 65.3581L69.6874 65.5821C68.8394 65.6381 68.2464 65.6011 67.9034 65.4711C67.5614 65.3421 67.3714 65.0661 67.3364 64.6361C67.3164 64.4031 67.3304 64.1041 67.3774 63.7411L67.6234 62.1551C67.6884 61.7411 68.0474 61.3361 68.7034 60.9411C68.2494 60.6601 68.0064 60.3441 67.9774 59.9921C67.9724 59.9441 67.9774 59.8891 67.9864 59.8301L68.2304 58.2601C68.3614 57.4321 68.6194 56.8751 69.0054 56.5981C69.3904 56.3191 70.1054 56.1461 71.1504 56.0781L74.6484 55.8511C75.4954 55.7941 76.0784 55.8241 76.3984 55.9401C76.7634 56.0731 76.9644 56.3591 77.0004 56.7951C77.0184 57.0301 77.0004 57.3301 76.9424 57.6951L76.6914 59.2651C76.6574 59.5111 76.5344 59.7521 76.3204 59.9841C76.1084 60.2161 75.8784 60.3871 75.6344 60.4901C76.0764 60.6761 76.3174 60.9731 76.3524 61.3821C76.3564 61.4491 76.3524 61.5191 76.3354 61.5901L76.0884 63.1741Z" fill="white"/>
<path fill-rule="evenodd" clip-rule="evenodd" d="M204.271 200.307C142.556 200.307 80.8401 200.199 19.1251 200.457C12.3401 200.488 4.96711 194.147 5.00011 188.007C5.28711 132.738 5.19811 77.464 5.10311 22.189C5.09611 17.923 4.58211 13.814 7.72611 10.041C10.3251 6.92502 13.6791 5.40803 17.8451 5.15703C20.6961 4.98703 23.5721 5.12502 26.4381 5.12502C147.48 5.12702 268.525 5.18902 389.567 5.00002C397.459 4.98702 404.582 11.063 404.543 18.296C404.264 74.729 404.267 131.161 404.548 187.594C404.586 194.652 397.406 200.431 390.132 200.409C328.179 200.224 266.226 200.304 204.271 200.307ZM204.062 195.63C264.339 195.63 324.619 195.633 384.897 195.63C385.971 195.63 387.059 195.727 388.119 195.608C392.171 195.157 396.339 194.569 397.925 190.624C398.773 188.518 399.055 186.135 399.056 183.878C399.116 129.559 399.105 75.237 399.105 20.915C399.105 20.178 399.16 19.434 399.084 18.702C398.677 14.661 395.988 11.098 392.643 10.517C390.223 10.098 387.723 9.83102 385.262 9.83102C264.942 9.79802 144.622 9.80402 24.3031 9.80402C23.4681 9.80402 22.6201 9.72802 21.7971 9.81702C18.1421 10.214 14.0941 10.441 12.2881 13.709C11.0491 15.95 10.5571 18.709 10.5361 21.243C10.3901 38.015 10.4601 54.784 10.4601 71.556C10.4601 109 10.4191 146.444 10.5451 183.887C10.5551 186.597 11.1461 189.601 12.5751 191.941C14.6351 195.309 18.8381 195.636 22.8671 195.636C83.2641 195.63 143.663 195.633 204.062 195.63Z" fill="white"/>
</svg>
